<mxfile host="app.diagrams.net" modified="2023-04-09T04:55:41.207Z" agent="Mozilla/5.0 (Windows NT 10.0; Win64; x64) AppleWebKit/537.36 (KHTML, like Gecko) Chrome/111.0.0.0 Safari/537.36" etag="nJ6MMegzzs9lXuB55s6k" version="21.1.5" type="device">
  <diagram id="C5RBs43oDa-KdzZeNtuy" name="Page-1">
    <mxGraphModel dx="1050" dy="602" grid="1" gridSize="10" guides="1" tooltips="1" connect="1" arrows="1" fold="1" page="1" pageScale="1" pageWidth="827" pageHeight="1169" math="0" shadow="0">
      <root>
        <mxCell id="WIyWlLk6GJQsqaUBKTNV-0" />
        <mxCell id="WIyWlLk6GJQsqaUBKTNV-1" parent="WIyWlLk6GJQsqaUBKTNV-0" />
        <mxCell id="Jezs4u2SB5xWxKTxIJ9Z-8" style="edgeStyle=orthogonalEdgeStyle;rounded=0;orthogonalLoop=1;jettySize=auto;html=1;" edge="1" parent="WIyWlLk6GJQsqaUBKTNV-1" source="Jezs4u2SB5xWxKTxIJ9Z-0" target="Jezs4u2SB5xWxKTxIJ9Z-2">
          <mxGeometry relative="1" as="geometry" />
        </mxCell>
        <mxCell id="Jezs4u2SB5xWxKTxIJ9Z-0" value="" style="strokeWidth=2;html=1;shape=mxgraph.flowchart.start_2;whiteSpace=wrap;fillColor=#a20025;fontColor=#ffffff;strokeColor=#6F0000;" vertex="1" parent="WIyWlLk6GJQsqaUBKTNV-1">
          <mxGeometry x="350" y="20" width="60" height="60" as="geometry" />
        </mxCell>
        <mxCell id="Jezs4u2SB5xWxKTxIJ9Z-1" value="" style="strokeWidth=2;html=1;shape=mxgraph.flowchart.start_2;whiteSpace=wrap;fillColor=#a20025;fontColor=#ffffff;strokeColor=#6F0000;" vertex="1" parent="WIyWlLk6GJQsqaUBKTNV-1">
          <mxGeometry x="379" y="780" width="70" height="80" as="geometry" />
        </mxCell>
        <mxCell id="Jezs4u2SB5xWxKTxIJ9Z-9" style="edgeStyle=orthogonalEdgeStyle;rounded=0;orthogonalLoop=1;jettySize=auto;html=1;" edge="1" parent="WIyWlLk6GJQsqaUBKTNV-1" source="Jezs4u2SB5xWxKTxIJ9Z-2" target="Jezs4u2SB5xWxKTxIJ9Z-3">
          <mxGeometry relative="1" as="geometry" />
        </mxCell>
        <mxCell id="Jezs4u2SB5xWxKTxIJ9Z-2" value="&quot;Ingrese el valor del vehiculo: &quot; .valorvehiculo" style="shape=parallelogram;html=1;strokeWidth=2;perimeter=parallelogramPerimeter;whiteSpace=wrap;rounded=1;arcSize=12;size=0.23;fillColor=#e1d5e7;strokeColor=#9673a6;" vertex="1" parent="WIyWlLk6GJQsqaUBKTNV-1">
          <mxGeometry x="224" y="120" width="386" height="60" as="geometry" />
        </mxCell>
        <mxCell id="Jezs4u2SB5xWxKTxIJ9Z-10" style="edgeStyle=orthogonalEdgeStyle;rounded=0;orthogonalLoop=1;jettySize=auto;html=1;" edge="1" parent="WIyWlLk6GJQsqaUBKTNV-1" source="Jezs4u2SB5xWxKTxIJ9Z-3" target="Jezs4u2SB5xWxKTxIJ9Z-4">
          <mxGeometry relative="1" as="geometry" />
        </mxCell>
        <mxCell id="Jezs4u2SB5xWxKTxIJ9Z-3" value="&quot;Cuantos vehiculos vendio?&quot; .cantidadVendida&amp;nbsp;" style="shape=parallelogram;html=1;strokeWidth=2;perimeter=parallelogramPerimeter;whiteSpace=wrap;rounded=1;arcSize=12;size=0.23;fillColor=#e1d5e7;strokeColor=#9673a6;" vertex="1" parent="WIyWlLk6GJQsqaUBKTNV-1">
          <mxGeometry x="200" y="220" width="410" height="60" as="geometry" />
        </mxCell>
        <mxCell id="Jezs4u2SB5xWxKTxIJ9Z-11" style="edgeStyle=orthogonalEdgeStyle;rounded=0;orthogonalLoop=1;jettySize=auto;html=1;" edge="1" parent="WIyWlLk6GJQsqaUBKTNV-1" source="Jezs4u2SB5xWxKTxIJ9Z-4" target="Jezs4u2SB5xWxKTxIJ9Z-5">
          <mxGeometry relative="1" as="geometry" />
        </mxCell>
        <mxCell id="Jezs4u2SB5xWxKTxIJ9Z-4" value="comisionVenta = ( valorVehiculo%10 ) * cantidadVendida" style="rounded=1;whiteSpace=wrap;html=1;absoluteArcSize=1;arcSize=14;strokeWidth=2;fillColor=#e1d5e7;strokeColor=#9673a6;" vertex="1" parent="WIyWlLk6GJQsqaUBKTNV-1">
          <mxGeometry x="224" y="330" width="350" height="100" as="geometry" />
        </mxCell>
        <mxCell id="Jezs4u2SB5xWxKTxIJ9Z-12" style="edgeStyle=orthogonalEdgeStyle;rounded=0;orthogonalLoop=1;jettySize=auto;html=1;" edge="1" parent="WIyWlLk6GJQsqaUBKTNV-1" source="Jezs4u2SB5xWxKTxIJ9Z-5" target="Jezs4u2SB5xWxKTxIJ9Z-7">
          <mxGeometry relative="1" as="geometry" />
        </mxCell>
        <mxCell id="Jezs4u2SB5xWxKTxIJ9Z-5" value="sueldoFinal = (vehiculoVendido * cantidadVendida) + comisionVenta + sueldo" style="rounded=1;whiteSpace=wrap;html=1;absoluteArcSize=1;arcSize=14;strokeWidth=2;fillColor=#e1d5e7;strokeColor=#9673a6;" vertex="1" parent="WIyWlLk6GJQsqaUBKTNV-1">
          <mxGeometry x="225" y="470" width="360" height="100" as="geometry" />
        </mxCell>
        <mxCell id="Jezs4u2SB5xWxKTxIJ9Z-13" style="edgeStyle=orthogonalEdgeStyle;rounded=0;orthogonalLoop=1;jettySize=auto;html=1;" edge="1" parent="WIyWlLk6GJQsqaUBKTNV-1" source="Jezs4u2SB5xWxKTxIJ9Z-7" target="Jezs4u2SB5xWxKTxIJ9Z-1">
          <mxGeometry relative="1" as="geometry" />
        </mxCell>
        <mxCell id="Jezs4u2SB5xWxKTxIJ9Z-7" value="&quot;El sueldo final del empleado es: &quot; .sueldoFinal" style="strokeWidth=2;html=1;shape=mxgraph.flowchart.document2;whiteSpace=wrap;size=0.25;fillColor=#e1d5e7;strokeColor=#9673a6;" vertex="1" parent="WIyWlLk6GJQsqaUBKTNV-1">
          <mxGeometry x="267" y="620" width="276" height="100" as="geometry" />
        </mxCell>
      </root>
    </mxGraphModel>
  </diagram>
</mxfile>
